<svg width="24" height="24" viewBox="0 0 24 24" fill="none" xmlns="http://www.w3.org/2000/svg">
<path d="M7.72 8.72C7.8 8.8 7.89333 8.84 8 8.84C8.10667 8.84 8.2 8.8 8.28 8.72L9.32 7.68C9.4 7.6 9.44 7.50667 9.44 7.4C9.44 7.29333 9.4 7.2 9.32 7.12L8.28 6.08C8.2 6 8.10667 5.96 8 5.96C7.89333 5.96 7.8 6 7.72 6.08L6.68 7.12C6.6 7.2 6.56 7.29333 6.56 7.4C6.56 7.50667 6.6 7.6 6.68 7.68L7.72 8.72ZM15.6 7.8C15.9333 7.8 16.2168 7.68347 16.4504 7.4504C16.684 7.21733 16.8005 6.93387 16.8 6.6C16.8 6.26667 16.6835 5.98347 16.4504 5.7504C16.2173 5.51733 15.9339 5.40053 15.6 5.4C15.2667 5.4 14.9835 5.5168 14.7504 5.7504C14.5173 5.984 14.4005 6.2672 14.4 6.6C14.4 6.93333 14.5168 7.2168 14.7504 7.4504C14.984 7.684 15.2672 7.80053 15.6 7.8ZM7.2 20.6C6.97333 20.6 6.78347 20.5232 6.6304 20.3696C6.47733 20.216 6.40053 20.0261 6.4 19.8V18.92C6.4 18.4533 6.53013 18.02 6.7904 17.62C7.05067 17.22 7.39387 16.92 7.82 16.72C8.47333 16.4133 9.15333 16.1835 9.86 16.0304C10.5667 15.8773 11.28 15.8005 12 15.8C12.72 15.8 13.4333 15.8768 14.14 16.0304C14.8467 16.184 15.5267 16.4139 16.18 16.72C16.6067 16.92 16.9501 17.22 17.2104 17.62C17.4707 18.02 17.6005 18.4533 17.6 18.92V19.8C17.6 20.0267 17.5235 20.2168 17.3704 20.3704C17.2173 20.524 17.0272 20.6005 16.8 20.6H7.2ZM12 15C11.2267 15 10.5667 14.7267 10.02 14.18C9.47333 13.6333 9.2 12.9733 9.2 12.2C9.2 11.4267 9.47333 10.7667 10.02 10.22C10.5667 9.67333 11.2267 9.4 12 9.4C12.7733 9.4 13.4333 9.67333 13.98 10.22C14.5267 10.7667 14.8 11.4267 14.8 12.2C14.8 12.9733 14.5267 13.6333 13.98 14.18C13.4333 14.7267 12.7733 15 12 15ZM4 4.6C4 4.16 4.1568 3.78347 4.4704 3.4704C4.784 3.15733 5.16053 3.00053 5.6 3H18.4C18.84 3 19.2168 3.1568 19.5304 3.4704C19.844 3.784 20.0005 4.16053 20 4.6V11.8C20 12.24 19.8435 12.6168 19.5304 12.9304C19.2173 13.244 18.8405 13.4005 18.4 13.4H16.7C16.4733 13.4 16.2901 13.3133 16.1504 13.14C16.0107 12.9667 15.9539 12.7667 15.98 12.54C15.9933 12.42 16 12.2968 16 12.1704C16 12.044 15.9933 11.9205 15.98 11.8C15.8733 10.7867 15.4435 9.93333 14.6904 9.24C13.9373 8.54667 13.0405 8.2 12 8.2C10.96 8.2 10.0632 8.54667 9.3096 9.24C8.556 9.93333 8.12613 10.7867 8.02 11.8C8.00667 11.92 8 12.0435 8 12.1704C8 12.2973 8.00667 12.4205 8.02 12.54C8.04667 12.7667 7.98987 12.9667 7.8496 13.14C7.70933 13.3133 7.5264 13.4 7.3008 13.4H5.6C5.16 13.4 4.78347 13.2435 4.4704 12.9304C4.15733 12.6173 4.00053 12.2405 4 11.8V4.6Z" fill="#707070"/>
</svg>
