<svg width="24" height="24" viewBox="0 0 24 24" fill="none" xmlns="http://www.w3.org/2000/svg">
<path d="M4 19.1429C4 19.3702 4.09031 19.5882 4.25105 19.7489C4.4118 19.9097 4.62981 20 4.85714 20H19.1429C19.3702 20 19.5882 19.9097 19.7489 19.7489C19.9097 19.5882 20 19.3702 20 19.1429V9.14286H4V19.1429ZM15.4286 10.4286C15.4286 10.3907 15.4436 10.3543 15.4704 10.3276C15.4972 10.3008 15.5335 10.2857 15.5714 10.2857H17C17.0379 10.2857 17.0742 10.3008 17.101 10.3276C17.1278 10.3543 17.1429 10.3907 17.1429 10.4286V11.8571C17.1429 11.895 17.1278 11.9314 17.101 11.9582C17.0742 11.9849 17.0379 12 17 12H15.5714C15.5335 12 15.4972 11.9849 15.4704 11.9582C15.4436 11.9314 15.4286 11.895 15.4286 11.8571V10.4286ZM15.4286 13.2857C15.4286 13.2478 15.4436 13.2115 15.4704 13.1847C15.4972 13.1579 15.5335 13.1429 15.5714 13.1429H17C17.0379 13.1429 17.0742 13.1579 17.101 13.1847C17.1278 13.2115 17.1429 13.2478 17.1429 13.2857V14.7143C17.1429 14.7522 17.1278 14.7885 17.101 14.8153C17.0742 14.8421 17.0379 14.8571 17 14.8571H15.5714C15.5335 14.8571 15.4972 14.8421 15.4704 14.8153C15.4436 14.7885 15.4286 14.7522 15.4286 14.7143V13.2857ZM12.5714 10.4286C12.5714 10.3907 12.5865 10.3543 12.6133 10.3276C12.6401 10.3008 12.6764 10.2857 12.7143 10.2857H14.1429C14.1807 10.2857 14.2171 10.3008 14.2439 10.3276C14.2707 10.3543 14.2857 10.3907 14.2857 10.4286V11.8571C14.2857 11.895 14.2707 11.9314 14.2439 11.9582C14.2171 11.9849 14.1807 12 14.1429 12H12.7143C12.6764 12 12.6401 11.9849 12.6133 11.9582C12.5865 11.9314 12.5714 11.895 12.5714 11.8571V10.4286ZM12.5714 13.2857C12.5714 13.2478 12.5865 13.2115 12.6133 13.1847C12.6401 13.1579 12.6764 13.1429 12.7143 13.1429H14.1429C14.1807 13.1429 14.2171 13.1579 14.2439 13.1847C14.2707 13.2115 14.2857 13.2478 14.2857 13.2857V14.7143C14.2857 14.7522 14.2707 14.7885 14.2439 14.8153C14.2171 14.8421 14.1807 14.8571 14.1429 14.8571H12.7143C12.6764 14.8571 12.6401 14.8421 12.6133 14.8153C12.5865 14.7885 12.5714 14.7522 12.5714 14.7143V13.2857ZM12.5714 16.1429C12.5714 16.105 12.5865 16.0686 12.6133 16.0418C12.6401 16.0151 12.6764 16 12.7143 16H14.1429C14.1807 16 14.2171 16.0151 14.2439 16.0418C14.2707 16.0686 14.2857 16.105 14.2857 16.1429V17.5714C14.2857 17.6093 14.2707 17.6457 14.2439 17.6724C14.2171 17.6992 14.1807 17.7143 14.1429 17.7143H12.7143C12.6764 17.7143 12.6401 17.6992 12.6133 17.6724C12.5865 17.6457 12.5714 17.6093 12.5714 17.5714V16.1429ZM9.71429 13.2857C9.71429 13.2478 9.72934 13.2115 9.75613 13.1847C9.78292 13.1579 9.81925 13.1429 9.85714 13.1429H11.2857C11.3236 13.1429 11.3599 13.1579 11.3867 13.1847C11.4135 13.2115 11.4286 13.2478 11.4286 13.2857V14.7143C11.4286 14.7522 11.4135 14.7885 11.3867 14.8153C11.3599 14.8421 11.3236 14.8571 11.2857 14.8571H9.85714C9.81925 14.8571 9.78292 14.8421 9.75613 14.8153C9.72934 14.7885 9.71429 14.7522 9.71429 14.7143V13.2857ZM9.71429 16.1429C9.71429 16.105 9.72934 16.0686 9.75613 16.0418C9.78292 16.0151 9.81925 16 9.85714 16H11.2857C11.3236 16 11.3599 16.0151 11.3867 16.0418C11.4135 16.0686 11.4286 16.105 11.4286 16.1429V17.5714C11.4286 17.6093 11.4135 17.6457 11.3867 17.6724C11.3599 17.6992 11.3236 17.7143 11.2857 17.7143H9.85714C9.81925 17.7143 9.78292 17.6992 9.75613 17.6724C9.72934 17.6457 9.71429 17.6093 9.71429 17.5714V16.1429ZM6.85714 13.2857C6.85714 13.2478 6.87219 13.2115 6.89898 13.1847C6.92578 13.1579 6.96211 13.1429 7 13.1429H8.42857C8.46646 13.1429 8.5028 13.1579 8.52959 13.1847C8.55638 13.2115 8.57143 13.2478 8.57143 13.2857V14.7143C8.57143 14.7522 8.55638 14.7885 8.52959 14.8153C8.5028 14.8421 8.46646 14.8571 8.42857 14.8571H7C6.96211 14.8571 6.92578 14.8421 6.89898 14.8153C6.87219 14.7885 6.85714 14.7522 6.85714 14.7143V13.2857ZM6.85714 16.1429C6.85714 16.105 6.87219 16.0686 6.89898 16.0418C6.92578 16.0151 6.96211 16 7 16H8.42857C8.46646 16 8.5028 16.0151 8.52959 16.0418C8.55638 16.0686 8.57143 16.105 8.57143 16.1429V17.5714C8.57143 17.6093 8.55638 17.6457 8.52959 17.6724C8.5028 17.6992 8.46646 17.7143 8.42857 17.7143H7C6.96211 17.7143 6.92578 17.6992 6.89898 17.6724C6.87219 17.6457 6.85714 17.6093 6.85714 17.5714V16.1429ZM19.1429 5.14286H17.1457V4H15.4314V5.14286H8.56857V4H6.85429V5.14286H4.85714C4.74501 5.14191 4.6338 5.16317 4.52992 5.2054C4.42603 5.24762 4.33153 5.30999 4.25186 5.3889C4.17219 5.46781 4.10891 5.56171 4.06569 5.66518C4.02246 5.76865 4.00014 5.87965 4 5.99179V8H20V5.99179C19.9999 5.87965 19.9775 5.76865 19.9343 5.66518C19.8911 5.56171 19.8278 5.46781 19.7481 5.3889C19.6685 5.30999 19.574 5.24762 19.4701 5.2054C19.3662 5.16317 19.255 5.14191 19.1429 5.14286Z" fill="#7E7F7F"/>
</svg>
