<svg width="24" height="24" viewBox="0 0 24 24" fill="none" xmlns="http://www.w3.org/2000/svg">
<path d="M23 14.275C23 14.8 21.95 15.15 20.725 15.325C19.9375 13.8375 18.3625 12.7 16.525 11.9125C16.7 11.65 16.875 11.475 17.05 11.2125H17.75C20.4625 11.125 23 12.7875 23 14.275ZM7.95 11.125H7.25C4.5375 11.125 2 12.7875 2 14.275C2 14.8 3.05 15.15 4.275 15.325C5.0625 13.8375 6.6375 12.7 8.475 11.9125L7.95 11.125ZM12.5 12C14.425 12 16 10.425 16 8.5C16 6.575 14.425 5 12.5 5C10.575 5 9 6.575 9 8.5C9 10.425 10.575 12 12.5 12ZM12.5 12.875C8.9125 12.875 5.5 15.15 5.5 17.25C5.5 19 12.5 19 12.5 19C12.5 19 19.5 19 19.5 17.25C19.5 15.15 16.0875 12.875 12.5 12.875ZM17.4875 10.25H17.75C19.2375 10.25 20.375 9.1125 20.375 7.625C20.375 6.1375 19.2375 5 17.75 5C17.3125 5 16.9625 5.0875 16.6125 5.2625C17.3125 6.1375 17.75 7.275 17.75 8.5C17.75 9.1125 17.6625 9.725 17.4875 10.25ZM7.25 10.25H7.5125C7.3375 9.725 7.25 9.1125 7.25 8.5C7.25 7.275 7.6875 6.1375 8.3875 5.2625C8.0375 5.0875 7.6875 5 7.25 5C5.7625 5 4.625 6.1375 4.625 7.625C4.625 9.1125 5.7625 10.25 7.25 10.25Z" fill="#7E7F7F"/>
</svg>
