<svg width="24" height="24" viewBox="0 0 24 24" fill="none" xmlns="http://www.w3.org/2000/svg">
<path fill-rule="evenodd" clip-rule="evenodd" d="M19.5553 11.1034C18.8497 7.16248 17.2721 6.00006 16.4329 6.00006C15.1232 6.00006 14.7872 6.97368 12 7.00648C9.21273 6.97368 8.87672 6.00006 7.5671 6.00006C6.72788 6.00006 5.14946 7.16248 4.44384 11.1034C4.04144 13.353 3.60463 16.7114 4.64545 17.1147C5.94067 17.6163 6.37988 16.3618 7.8023 15.3018C9.24633 14.2274 9.93914 13.9746 12 13.9746C14.0608 13.9746 14.7536 14.2274 16.1977 15.3018C17.6201 16.361 18.0593 17.6163 19.3545 17.1147C20.3953 16.7114 19.9585 13.3538 19.5553 11.1034ZM8.79992 11.6146C8.37557 11.6146 7.96859 11.446 7.66853 11.1459C7.36847 10.8459 7.19989 10.4389 7.19989 10.0145C7.19989 9.59018 7.36847 9.1832 7.66853 8.88314C7.96859 8.58308 8.37557 8.4145 8.79992 8.4145C9.22428 8.4145 9.63125 8.58308 9.93131 8.88314C10.2314 9.1832 10.4 9.59018 10.4 10.0145C10.4 10.4389 10.2314 10.8459 9.93131 11.1459C9.63125 11.446 9.22428 11.6146 8.79992 11.6146ZM14.4 11.6146C14.1878 11.6146 13.9844 11.5303 13.8343 11.3802C13.6843 11.2302 13.6 11.0267 13.6 10.8145C13.6 10.6024 13.6843 10.3989 13.8343 10.2489C13.9844 10.0988 14.1878 10.0145 14.4 10.0145C14.6122 10.0145 14.8157 10.0988 14.9657 10.2489C15.1157 10.3989 15.2 10.6024 15.2 10.8145C15.2 11.0267 15.1157 11.2302 14.9657 11.3802C14.8157 11.5303 14.6122 11.6146 14.4 11.6146ZM16 10.0145C15.7879 10.0145 15.5844 9.93024 15.4344 9.78021C15.2843 9.63018 15.2 9.42669 15.2 9.21452C15.2 9.00234 15.2843 8.79885 15.4344 8.64882C15.5844 8.49879 15.7879 8.4145 16 8.4145C16.2122 8.4145 16.4157 8.49879 16.5657 8.64882C16.7158 8.79885 16.8001 9.00234 16.8001 9.21452C16.8001 9.42669 16.7158 9.63018 16.5657 9.78021C16.4157 9.93024 16.2122 10.0145 16 10.0145Z" fill="#7E7F7F"/>
</svg>
