<svg width="24" height="24" viewBox="0 0 24 24" fill="none" xmlns="http://www.w3.org/2000/svg">
<path fill-rule="evenodd" clip-rule="evenodd" d="M19.5553 11.1033C18.8497 7.16245 17.2721 6.00003 16.4329 6.00003C15.1232 6.00003 14.7872 6.97365 12 7.00645C9.21273 6.97365 8.87672 6.00003 7.5671 6.00003C6.72788 6.00003 5.14946 7.16245 4.44384 11.1033C4.04144 13.353 3.60463 16.7114 4.64545 17.1146C5.94067 17.6162 6.37988 16.3618 7.8023 15.3018C9.24633 14.2274 9.93914 13.9746 12 13.9746C14.0608 13.9746 14.7536 14.2274 16.1977 15.3018C17.6201 16.361 18.0593 17.6162 19.3545 17.1146C20.3953 16.7114 19.9585 13.3538 19.5553 11.1033ZM8.79992 11.6145C8.37557 11.6145 7.96859 11.446 7.66853 11.1459C7.36847 10.8458 7.19989 10.4389 7.19989 10.0145C7.19989 9.59015 7.36847 9.18317 7.66853 8.88311C7.96859 8.58305 8.37557 8.41447 8.79992 8.41447C9.22428 8.41447 9.63125 8.58305 9.93131 8.88311C10.2314 9.18317 10.4 9.59015 10.4 10.0145C10.4 10.4389 10.2314 10.8458 9.93131 11.1459C9.63125 11.446 9.22428 11.6145 8.79992 11.6145ZM14.4 11.6145C14.1878 11.6145 13.9844 11.5302 13.8343 11.3802C13.6843 11.2302 13.6 11.0267 13.6 10.8145C13.6 10.6023 13.6843 10.3989 13.8343 10.2488C13.9844 10.0988 14.1878 10.0145 14.4 10.0145C14.6122 10.0145 14.8157 10.0988 14.9657 10.2488C15.1157 10.3989 15.2 10.6023 15.2 10.8145C15.2 11.0267 15.1157 11.2302 14.9657 11.3802C14.8157 11.5302 14.6122 11.6145 14.4 11.6145ZM16 10.0145C15.7879 10.0145 15.5844 9.93021 15.4344 9.78018C15.2843 9.63015 15.2 9.42666 15.2 9.21449C15.2 9.00231 15.2843 8.79882 15.4344 8.64879C15.5844 8.49876 15.7879 8.41447 16 8.41447C16.2122 8.41447 16.4157 8.49876 16.5657 8.64879C16.7158 8.79882 16.8001 9.00231 16.8001 9.21449C16.8001 9.42666 16.7158 9.63015 16.5657 9.78018C16.4157 9.93021 16.2122 10.0145 16 10.0145Z" fill="#2E2E2E"/>
</svg>
