<svg width="24" height="26" viewBox="0 0 24 26" fill="none" xmlns="http://www.w3.org/2000/svg">
<g filter="url(#filter0_d_13_443)">
<path fill-rule="evenodd" clip-rule="evenodd" d="M19.5554 11.1034C18.8498 7.16248 17.2721 6.00006 16.4329 6.00006C15.1233 6.00006 14.7873 6.97368 12 7.00648C9.21279 6.97368 8.87678 6.00006 7.56716 6.00006C6.72795 6.00006 5.14952 7.16248 4.44391 11.1034C4.0415 13.353 3.60469 16.7114 4.64551 17.1147C5.94073 17.6163 6.37994 16.3618 7.80236 15.3018C9.24639 14.2274 9.9392 13.9746 12 13.9746C14.0609 13.9746 14.7537 14.2274 16.1977 15.3018C17.6201 16.361 18.0593 17.6163 19.3546 17.1147C20.3954 16.7114 19.9586 13.3538 19.5554 11.1034ZM8.79998 11.6146C8.37563 11.6146 7.96866 11.446 7.66859 11.1459C7.36853 10.8459 7.19995 10.4389 7.19995 10.0145C7.19995 9.59018 7.36853 9.1832 7.66859 8.88314C7.96866 8.58308 8.37563 8.4145 8.79998 8.4145C9.22434 8.4145 9.63131 8.58308 9.93137 8.88314C10.2314 9.1832 10.4 9.59018 10.4 10.0145C10.4 10.4389 10.2314 10.8459 9.93137 11.1459C9.63131 11.446 9.22434 11.6146 8.79998 11.6146ZM14.4001 11.6146C14.1879 11.6146 13.9844 11.5303 13.8344 11.3802C13.6844 11.2302 13.6001 11.0267 13.6001 10.8145C13.6001 10.6024 13.6844 10.3989 13.8344 10.2489C13.9844 10.0988 14.1879 10.0145 14.4001 10.0145C14.6123 10.0145 14.8157 10.0988 14.9658 10.2489C15.1158 10.3989 15.2001 10.6024 15.2001 10.8145C15.2001 11.0267 15.1158 11.2302 14.9658 11.3802C14.8157 11.5303 14.6123 11.6146 14.4001 11.6146ZM16.0001 10.0145C15.7879 10.0145 15.5844 9.93024 15.4344 9.78021C15.2844 9.63018 15.2001 9.42669 15.2001 9.21452C15.2001 9.00234 15.2844 8.79885 15.4344 8.64882C15.5844 8.49879 15.7879 8.4145 16.0001 8.4145C16.2123 8.4145 16.4158 8.49879 16.5658 8.64882C16.7158 8.79885 16.8001 9.00234 16.8001 9.21452C16.8001 9.42669 16.7158 9.63018 16.5658 9.78021C16.4158 9.93024 16.2123 10.0145 16.0001 10.0145Z" fill="#DBD9D9"/>
</g>
<defs>
<filter id="filter0_d_13_443" x="-4" y="0" width="32" height="32" filterUnits="userSpaceOnUse" color-interpolation-filters="sRGB">
<feFlood flood-opacity="0" result="BackgroundImageFix"/>
<feColorMatrix in="SourceAlpha" type="matrix" values="0 0 0 0 0 0 0 0 0 0 0 0 0 0 0 0 0 0 127 0" result="hardAlpha"/>
<feOffset dy="4"/>
<feGaussianBlur stdDeviation="2"/>
<feComposite in2="hardAlpha" operator="out"/>
<feColorMatrix type="matrix" values="0 0 0 0 0 0 0 0 0 0 0 0 0 0 0 0 0 0 0.25 0"/>
<feBlend mode="normal" in2="BackgroundImageFix" result="effect1_dropShadow_13_443"/>
<feBlend mode="normal" in="SourceGraphic" in2="effect1_dropShadow_13_443" result="shape"/>
</filter>
</defs>
</svg>
