<svg width="24" height="24" viewBox="0 0 24 24" fill="none" xmlns="http://www.w3.org/2000/svg">
<path d="M7.97778 18.744C6.8803 18.744 5.94311 18.3553 5.16622 17.5778C4.38874 16.8009 4 15.8637 4 14.7662C4 13.6859 4.37748 12.7597 5.13244 11.9876C5.88741 11.2154 6.80504 10.8175 7.88533 10.7938C7.99911 10.7938 8.11319 10.8024 8.22756 10.8196C8.34133 10.8361 8.45511 10.856 8.56889 10.8791L5.64089 5H9.88089L12 9.24L14.12 5H18.3591L15.4524 10.8178C15.5556 10.7947 15.661 10.7775 15.7689 10.7662C15.8773 10.7544 15.9884 10.7484 16.1022 10.7484C17.1908 10.7763 18.1126 11.1763 18.8676 11.9484C19.6225 12.7206 20 13.6524 20 14.744C20 15.8563 19.6113 16.8009 18.8338 17.5778C18.0569 18.3553 17.1123 18.744 16 18.744C15.8323 18.744 15.661 18.7345 15.4862 18.7156C15.3114 18.6972 15.1458 18.6616 14.9893 18.6089C15.6904 18.3037 16.1822 17.7852 16.4649 17.0533C16.7476 16.3209 16.8889 15.5511 16.8889 14.744C16.8889 13.3799 16.4151 12.224 15.4676 11.2764C14.5194 10.3289 13.3636 9.85511 12 9.85511C10.6359 9.85511 9.48 10.3289 8.53244 11.2764C7.58489 12.2246 7.11111 13.3804 7.11111 14.744C7.11111 15.5576 7.24148 16.3404 7.50222 17.0924C7.76296 17.845 8.2637 18.3505 9.00444 18.6089C8.83733 18.6616 8.66904 18.6972 8.49956 18.7156C8.33067 18.7345 8.15674 18.744 7.97778 18.744ZM12 18.744C10.8889 18.744 9.94459 18.3553 9.16711 17.5778C8.38963 16.8003 8.00059 15.8557 8 14.744C8 13.6329 8.38904 12.6886 9.16711 11.9111C9.94519 11.1336 10.8895 10.7446 12 10.744C13.1111 10.744 14.0557 11.133 14.8338 11.9111C15.6119 12.6892 16.0006 13.6335 16 14.744C16 15.8551 15.6113 16.7997 14.8338 17.5778C14.0563 18.3559 13.1117 18.7446 12 18.744ZM10.6116 16.7778L12 15.7218L13.3884 16.7778L12.8684 15.064L14.256 14.0738H12.5422L12 12.2658L11.4578 14.0738H9.744L11.1316 15.064L10.6116 16.7778Z" fill="#707070"/>
</svg>
