<svg width="24" height="24" viewBox="0 0 24 24" fill="none" xmlns="http://www.w3.org/2000/svg">
<path d="M4 16.6656V18C4 19.1031 6.6875 20 10 20C13.3125 20 16 19.1031 16 18V16.6656C14.7094 17.575 12.35 18 10 18C7.65 18 5.29062 17.575 4 16.6656ZM14 8C17.3125 8 20 7.10313 20 6C20 4.89688 17.3125 4 14 4C10.6875 4 8 4.89688 8 6C8 7.10313 10.6875 8 14 8ZM4 13.3875V15C4 16.1031 6.6875 17 10 17C13.3125 17 16 16.1031 16 15V13.3875C14.7094 14.45 12.3469 15 10 15C7.65313 15 5.29062 14.45 4 13.3875ZM17 13.7312C18.7906 13.3844 20 12.7406 20 12V10.6656C19.275 11.1781 18.2094 11.5281 17 11.7438V13.7312ZM10 9C6.6875 9 4 10.1188 4 11.5C4 12.8813 6.6875 14 10 14C13.3125 14 16 12.8813 16 11.5C16 10.1188 13.3125 9 10 9ZM16.8531 10.7594C18.7281 10.4219 20 9.75938 20 9V7.66563C18.8906 8.45 16.9844 8.87188 14.9781 8.97188C15.9 9.41875 16.5781 10.0188 16.8531 10.7594Z" fill="#707070"/>
</svg>
