<svg width="16" height="18" viewBox="0 0 16 18" fill="none" xmlns="http://www.w3.org/2000/svg">
<path d="M3.72 5.72C3.8 5.8 3.89333 5.84 4 5.84C4.10667 5.84 4.2 5.8 4.28 5.72L5.32 4.68C5.4 4.6 5.44 4.50667 5.44 4.4C5.44 4.29333 5.4 4.2 5.32 4.12L4.28 3.08C4.2 3 4.10667 2.96 4 2.96C3.89333 2.96 3.8 3 3.72 3.08L2.68 4.12C2.6 4.2 2.56 4.29333 2.56 4.4C2.56 4.50667 2.6 4.6 2.68 4.68L3.72 5.72ZM11.6 4.8C11.9333 4.8 12.2168 4.68347 12.4504 4.4504C12.684 4.21733 12.8005 3.93387 12.8 3.6C12.8 3.26667 12.6835 2.98347 12.4504 2.7504C12.2173 2.51733 11.9339 2.40053 11.6 2.4C11.2667 2.4 10.9835 2.5168 10.7504 2.7504C10.5173 2.984 10.4005 3.2672 10.4 3.6C10.4 3.93333 10.5168 4.2168 10.7504 4.4504C10.984 4.684 11.2672 4.80053 11.6 4.8ZM3.2 17.6C2.97333 17.6 2.78347 17.5232 2.6304 17.3696C2.47733 17.216 2.40053 17.0261 2.4 16.8V15.92C2.4 15.4533 2.53013 15.02 2.7904 14.62C3.05067 14.22 3.39387 13.92 3.82 13.72C4.47333 13.4133 5.15333 13.1835 5.86 13.0304C6.56667 12.8773 7.28 12.8005 8 12.8C8.72 12.8 9.43333 12.8768 10.14 13.0304C10.8467 13.184 11.5267 13.4139 12.18 13.72C12.6067 13.92 12.9501 14.22 13.2104 14.62C13.4707 15.02 13.6005 15.4533 13.6 15.92V16.8C13.6 17.0267 13.5235 17.2168 13.3704 17.3704C13.2173 17.524 13.0272 17.6005 12.8 17.6H3.2ZM8 12C7.22667 12 6.56667 11.7267 6.02 11.18C5.47333 10.6333 5.2 9.97333 5.2 9.2C5.2 8.42667 5.47333 7.76667 6.02 7.22C6.56667 6.67333 7.22667 6.4 8 6.4C8.77333 6.4 9.43333 6.67333 9.98 7.22C10.5267 7.76667 10.8 8.42667 10.8 9.2C10.8 9.97333 10.5267 10.6333 9.98 11.18C9.43333 11.7267 8.77333 12 8 12ZM0 1.6C0 1.16 0.1568 0.783467 0.4704 0.4704C0.784 0.157333 1.16053 0.000533333 1.6 0H14.4C14.84 0 15.2168 0.1568 15.5304 0.4704C15.844 0.784 16.0005 1.16053 16 1.6V8.8C16 9.24 15.8435 9.6168 15.5304 9.9304C15.2173 10.244 14.8405 10.4005 14.4 10.4H12.7C12.4733 10.4 12.2901 10.3133 12.1504 10.14C12.0107 9.96667 11.9539 9.76667 11.98 9.54C11.9933 9.42 12 9.2968 12 9.1704C12 9.044 11.9933 8.92053 11.98 8.8C11.8733 7.78667 11.4435 6.93333 10.6904 6.24C9.93733 5.54667 9.04053 5.2 8 5.2C6.96 5.2 6.0632 5.54667 5.3096 6.24C4.556 6.93333 4.12613 7.78667 4.02 8.8C4.00667 8.92 4 9.04347 4 9.1704C4 9.29733 4.00667 9.42053 4.02 9.54C4.04667 9.76667 3.98987 9.96667 3.8496 10.14C3.70933 10.3133 3.5264 10.4 3.3008 10.4H1.6C1.16 10.4 0.783467 10.2435 0.4704 9.9304C0.157333 9.61733 0.000533333 9.24053 0 8.8V1.6Z" fill="#707070"/>
</svg>
