<svg width="24" height="24" viewBox="0 0 24 24" fill="none" xmlns="http://www.w3.org/2000/svg">
<path d="M4 7.77778C4 6.79722 4.79722 6 5.77778 6H12.8889C13.8694 6 14.6667 6.79722 14.6667 7.77778V14.8889C14.6667 15.8694 13.8694 16.6667 12.8889 16.6667H5.77778C4.79722 16.6667 4 15.8694 4 14.8889V7.77778ZM19.5306 6.99444C19.8194 7.15 20 7.45 20 7.77778V14.8889C20 15.2167 19.8194 15.5167 19.5306 15.6722C19.2417 15.8278 18.8917 15.8111 18.6167 15.6278L15.95 13.85L15.5556 13.5861V9.08056L15.95 8.81667L18.6167 7.03889C18.8889 6.85833 19.2389 6.83889 19.5306 6.99444Z" fill="#707070"/>
</svg>
