<svg width="98" height="38" viewBox="0 0 98 38" fill="none" xmlns="http://www.w3.org/2000/svg">
<path fill-rule="evenodd" clip-rule="evenodd" d="M19.444 18.361C18.562 13.435 16.59 11.982 15.541 11.982C13.904 11.982 13.484 13.199 9.99999 13.24C6.51599 13.199 6.09599 11.982 4.45899 11.982C3.40999 11.982 1.43699 13.435 0.554994 18.361C0.0519937 21.173 -0.494006 25.371 0.806994 25.875C2.42599 26.502 2.97499 24.934 4.75299 23.609C6.55799 22.266 7.42399 21.95 9.99999 21.95C12.576 21.95 13.442 22.266 15.247 23.609C17.025 24.933 17.574 26.502 19.193 25.875C20.494 25.371 19.948 21.174 19.444 18.361ZM5.99999 19C5.46956 19 4.96085 18.7893 4.58578 18.4142C4.21071 18.0391 3.99999 17.5304 3.99999 17C3.99999 16.4696 4.21071 15.9609 4.58578 15.5858C4.96085 15.2107 5.46956 15 5.99999 15C6.53043 15 7.03913 15.2107 7.41421 15.5858C7.78928 15.9609 7.99999 16.4696 7.99999 17C7.99999 17.5304 7.78928 18.0391 7.41421 18.4142C7.03913 18.7893 6.53043 19 5.99999 19ZM13 19C12.7348 19 12.4804 18.8946 12.2929 18.7071C12.1054 18.5196 12 18.2652 12 18C12 17.7348 12.1054 17.4804 12.2929 17.2929C12.4804 17.1054 12.7348 17 13 17C13.2652 17 13.5196 17.1054 13.7071 17.2929C13.8946 17.4804 14 17.7348 14 18C14 18.2652 13.8946 18.5196 13.7071 18.7071C13.5196 18.8946 13.2652 19 13 19ZM15 17C14.7348 17 14.4804 16.8946 14.2929 16.7071C14.1054 16.5196 14 16.2652 14 16C14 15.7348 14.1054 15.4804 14.2929 15.2929C14.4804 15.1054 14.7348 15 15 15C15.2652 15 15.5196 15.1054 15.7071 15.2929C15.8946 15.4804 16 15.7348 16 16C16 16.2652 15.8946 16.5196 15.7071 16.7071C15.5196 16.8946 15.2652 17 15 17Z" fill="#8BC72F"/>
<path d="M29.9802 25.5H29.7402C29.3242 25.5 28.9242 25.46 28.5402 25.38C28.1562 25.3 27.8122 25.156 27.5082 24.948C27.2202 24.74 26.9802 24.452 26.7882 24.084C26.6122 23.716 26.5242 23.236 26.5242 22.644V10.956C26.5242 10.38 26.6122 9.908 26.7882 9.54C26.9642 9.172 27.1962 8.884 27.4842 8.676C27.7722 8.452 28.1002 8.3 28.4682 8.22C28.8362 8.124 29.2122 8.076 29.5962 8.076H29.9802V25.5ZM35.1402 22.548C35.1402 23.156 35.0362 23.652 34.8282 24.036C34.6362 24.42 34.3882 24.724 34.0842 24.948C33.7962 25.156 33.4762 25.3 33.1242 25.38C32.7882 25.46 32.4762 25.5 32.1882 25.5H31.6602V20.604C31.6602 20.268 31.6362 19.956 31.5882 19.668C31.5402 19.364 31.3802 19.212 31.1082 19.212C30.9642 19.212 30.8522 19.228 30.7722 19.26C30.6922 19.292 30.6122 19.348 30.5322 19.428L30.4602 19.164C30.4122 19.004 30.3882 18.764 30.3882 18.444C30.3882 17.98 30.5722 17.556 30.9402 17.172C31.3082 16.788 31.8522 16.596 32.5722 16.596C33.3722 16.596 34.0042 16.852 34.4682 17.364C34.9322 17.86 35.1562 18.612 35.1402 19.62V22.548ZM35.2122 10.356C35.2122 10.868 35.1162 11.276 34.9242 11.58C34.7322 11.884 34.5002 12.124 34.2282 12.3C33.9562 12.476 33.6682 12.596 33.3642 12.66C33.0602 12.708 32.7962 12.732 32.5722 12.732C32.3802 12.732 32.2202 12.716 32.0922 12.684V11.58C32.0922 11.244 32.0122 10.996 31.8522 10.836C31.6922 10.676 31.4922 10.596 31.2522 10.596C30.9482 10.596 30.6922 10.692 30.4842 10.884C30.4362 10.756 30.4042 10.644 30.3882 10.548C30.3882 10.436 30.3882 10.316 30.3882 10.188C30.3882 9.996 30.4282 9.78 30.5082 9.54C30.6042 9.284 30.7402 9.052 30.9162 8.844C31.1082 8.62 31.3482 8.436 31.6362 8.292C31.9402 8.132 32.3002 8.052 32.7162 8.052C33.1482 8.052 33.5162 8.124 33.8202 8.268C34.1402 8.412 34.3962 8.596 34.5882 8.82C34.7962 9.028 34.9482 9.276 35.0442 9.564C35.1562 9.836 35.2122 10.1 35.2122 10.356ZM40.5683 25.5C40.1523 25.5 39.7523 25.46 39.3683 25.38C38.9843 25.3 38.6403 25.156 38.3363 24.948C38.0483 24.74 37.8083 24.452 37.6163 24.084C37.4403 23.716 37.3523 23.236 37.3523 22.644V10.956C37.3523 10.412 37.4643 9.956 37.6883 9.588C37.9123 9.204 38.1923 8.908 38.5283 8.7C38.8643 8.476 39.2323 8.316 39.6323 8.22C40.0483 8.124 40.4403 8.076 40.8083 8.076V25.5H40.5683ZM41.0483 15.516H42.9923C42.9923 16.172 42.8723 16.724 42.6323 17.172C42.3923 17.604 41.9043 17.82 41.1683 17.82H41.0483V15.516ZM43.1603 12.084C43.1603 11.908 43.1443 11.732 43.1123 11.556C43.0963 11.364 43.0483 11.196 42.9683 11.052C42.9043 10.892 42.8003 10.764 42.6563 10.668C42.5283 10.572 42.3443 10.524 42.1043 10.524C41.8003 10.524 41.5443 10.62 41.3363 10.812C41.2403 10.556 41.1923 10.324 41.1923 10.116C41.1923 9.86 41.2323 9.612 41.3123 9.372C41.4083 9.116 41.5523 8.892 41.7443 8.7C41.9363 8.508 42.1763 8.356 42.4643 8.244C42.7683 8.116 43.1363 8.052 43.5683 8.052C44.0483 8.052 44.4723 8.14 44.8403 8.316C45.2243 8.476 45.5443 8.708 45.8003 9.012C46.0563 9.3 46.2483 9.644 46.3763 10.044C46.5203 10.428 46.5923 10.844 46.5923 11.292V25.5C46.1603 25.5 45.7363 25.468 45.3203 25.404C44.9203 25.34 44.5523 25.212 44.2163 25.02C43.8963 24.812 43.6403 24.508 43.4483 24.108C43.2563 23.708 43.1603 23.172 43.1603 22.5V12.084ZM54.7848 12.084C54.7848 11.908 54.7688 11.732 54.7368 11.556C54.7208 11.364 54.6728 11.196 54.5928 11.052C54.5288 10.892 54.4248 10.764 54.2808 10.668C54.1528 10.572 53.9688 10.524 53.7288 10.524C53.4248 10.524 53.1688 10.62 52.9608 10.812C52.8648 10.556 52.8168 10.324 52.8168 10.116C52.8168 9.86 52.8568 9.612 52.9368 9.372C53.0328 9.116 53.1768 8.892 53.3688 8.7C53.5608 8.508 53.8008 8.356 54.0888 8.244C54.3928 8.116 54.7608 8.052 55.1928 8.052C56.1528 8.052 56.8968 8.34 57.4248 8.916C57.9528 9.492 58.2168 10.284 58.2168 11.292V25.5C57.7848 25.5 57.3608 25.468 56.9448 25.404C56.5448 25.34 56.1768 25.212 55.8408 25.02C55.5208 24.812 55.2648 24.508 55.0728 24.108C54.8808 23.708 54.7848 23.172 54.7848 22.5V12.084ZM52.4568 25.5H52.2168C51.8008 25.5 51.4008 25.46 51.0168 25.38C50.6328 25.3 50.2888 25.156 49.9848 24.948C49.6968 24.74 49.4568 24.452 49.2648 24.084C49.0888 23.716 49.0008 23.236 49.0008 22.644V8.076H49.3848C49.7688 8.076 50.1448 8.124 50.5128 8.22C50.8808 8.3 51.2088 8.452 51.4968 8.676C51.7848 8.884 52.0168 9.172 52.1928 9.54C52.3688 9.908 52.4568 10.38 52.4568 10.956V25.5ZM60.5448 12.084C60.5448 11.908 60.5288 11.732 60.4968 11.556C60.4808 11.364 60.4328 11.196 60.3528 11.052C60.2888 10.892 60.1848 10.764 60.0408 10.668C59.9128 10.572 59.7288 10.524 59.4888 10.524C59.1848 10.524 58.9288 10.62 58.7208 10.812C58.6248 10.556 58.5768 10.324 58.5768 10.116C58.5768 9.86 58.6168 9.612 58.6968 9.372C58.7928 9.116 58.9368 8.892 59.1288 8.7C59.3208 8.508 59.5608 8.356 59.8488 8.244C60.1528 8.116 60.5208 8.052 60.9528 8.052C61.9128 8.052 62.6568 8.34 63.1848 8.916C63.7128 9.492 63.9768 10.284 63.9768 11.292V25.5C63.5448 25.5 63.1208 25.468 62.7048 25.404C62.3048 25.34 61.9368 25.212 61.6008 25.02C61.2808 24.812 61.0248 24.508 60.8328 24.108C60.6408 23.708 60.5448 23.172 60.5448 22.5V12.084ZM69.824 25.5H69.584C69.168 25.5 68.768 25.46 68.384 25.38C68 25.3 67.656 25.156 67.352 24.948C67.064 24.74 66.824 24.452 66.632 24.084C66.456 23.716 66.368 23.236 66.368 22.644V10.956C66.368 10.38 66.456 9.908 66.632 9.54C66.808 9.172 67.04 8.884 67.328 8.676C67.616 8.452 67.944 8.3 68.312 8.22C68.68 8.124 69.056 8.076 69.44 8.076H69.824V25.5ZM70.328 15.516H72.464C72.464 15.884 72.432 16.22 72.368 16.524C72.32 16.828 72.216 17.1 72.056 17.34C71.912 17.564 71.712 17.74 71.456 17.868C71.2 17.996 70.872 18.06 70.472 18.06H70.328V15.516ZM75.08 23.196C75.08 23.468 75.032 23.74 74.936 24.012C74.84 24.284 74.688 24.532 74.48 24.756C74.272 24.964 74.016 25.14 73.712 25.284C73.408 25.428 73.048 25.5 72.632 25.5C72.328 25.5 72.032 25.452 71.744 25.356C71.456 25.244 71.2 25.092 70.976 24.9C70.768 24.708 70.592 24.484 70.448 24.228C70.32 23.972 70.256 23.684 70.256 23.364C70.256 23.236 70.256 23.124 70.256 23.028C70.272 22.916 70.304 22.796 70.352 22.668C70.56 22.86 70.816 22.956 71.12 22.956C71.36 22.956 71.56 22.884 71.72 22.74C71.88 22.58 71.96 22.348 71.96 22.044V20.868C72.088 20.836 72.248 20.82 72.44 20.82C72.664 20.82 72.928 20.852 73.232 20.916C73.536 20.964 73.824 21.076 74.096 21.252C74.368 21.428 74.6 21.676 74.792 21.996C74.984 22.3 75.08 22.7 75.08 23.196ZM75.08 10.356C75.08 10.868 74.984 11.276 74.792 11.58C74.6 11.884 74.368 12.124 74.096 12.3C73.824 12.476 73.536 12.596 73.232 12.66C72.928 12.708 72.664 12.732 72.44 12.732C72.248 12.732 72.088 12.716 71.96 12.684V11.58C71.96 11.26 71.88 11.02 71.72 10.86C71.576 10.684 71.376 10.596 71.12 10.596C70.816 10.596 70.56 10.692 70.352 10.884C70.304 10.756 70.272 10.644 70.256 10.548C70.256 10.436 70.256 10.316 70.256 10.188C70.256 9.996 70.296 9.78 70.376 9.54C70.472 9.284 70.608 9.052 70.784 8.844C70.976 8.62 71.216 8.436 71.504 8.292C71.808 8.132 72.168 8.052 72.584 8.052C72.92 8.052 73.24 8.108 73.544 8.22C73.848 8.332 74.112 8.492 74.336 8.7C74.56 8.908 74.736 9.156 74.864 9.444C75.008 9.716 75.08 10.02 75.08 10.356ZM80.3474 22.62C80.3474 23.18 80.2354 23.644 80.0114 24.012C79.7874 24.38 79.5074 24.676 79.1714 24.9C78.8354 25.108 78.4594 25.26 78.0434 25.356C77.6434 25.452 77.2594 25.5 76.8914 25.5V11.556C76.8914 10.436 77.1474 9.572 77.6594 8.964C78.1714 8.356 78.9074 8.052 79.8674 8.052C80.3474 8.052 80.7394 8.132 81.0434 8.292C81.3474 8.452 81.5794 8.66 81.7394 8.916C81.9154 9.172 82.0354 9.452 82.0994 9.756C82.1634 10.044 82.1954 10.324 82.1954 10.596C82.1954 10.74 82.1794 10.844 82.1474 10.908C81.9394 10.732 81.6914 10.644 81.4034 10.644C81.1634 10.644 80.9714 10.692 80.8274 10.788C80.6994 10.868 80.5954 10.98 80.5154 11.124C80.4514 11.252 80.4034 11.404 80.3714 11.58C80.3554 11.756 80.3474 11.94 80.3474 12.132V22.62ZM82.4594 8.1H82.7714C83.6834 8.1 84.4354 8.388 85.0274 8.964C85.6194 9.524 85.9154 10.34 85.9154 11.412V13.932C85.9154 14.988 85.6514 15.788 85.1234 16.332C84.6114 16.876 83.9874 17.164 83.2514 17.196H83.0834C82.6354 17.196 82.2594 17.116 81.9554 16.956C81.6514 16.796 81.4034 16.596 81.2114 16.356C81.0354 16.1 80.9074 15.828 80.8274 15.54C80.7474 15.236 80.7074 14.94 80.7074 14.652C80.8194 14.748 80.9234 14.82 81.0194 14.868C81.1154 14.9 81.3074 14.916 81.5954 14.916C81.8034 14.916 81.9634 14.86 82.0754 14.748C82.2034 14.62 82.2914 14.468 82.3394 14.292C82.4034 14.116 82.4354 13.924 82.4354 13.716C82.4514 13.492 82.4594 13.292 82.4594 13.116V8.1ZM85.5314 25.5H85.2914C84.8754 25.5 84.4594 25.46 84.0434 25.38C83.6434 25.3 83.2754 25.156 82.9394 24.948C82.6194 24.74 82.3554 24.452 82.1474 24.084C81.9394 23.716 81.8354 23.236 81.8354 22.644V17.556H82.2194C82.6194 17.556 83.0194 17.604 83.4194 17.7C83.8194 17.78 84.1714 17.932 84.4754 18.156C84.7954 18.364 85.0514 18.652 85.2434 19.02C85.4354 19.388 85.5314 19.86 85.5314 20.436V25.5ZM92.8711 8.076H93.1591C93.5111 8.076 93.8711 8.116 94.2391 8.196C94.6231 8.276 94.9671 8.428 95.2711 8.652C95.5911 8.86 95.8471 9.156 96.0391 9.54C96.2311 9.908 96.3271 10.38 96.3271 10.956V14.94C96.3271 15.516 96.2311 15.996 96.0391 16.38C95.8471 16.748 95.5911 17.044 95.2711 17.268C94.9671 17.476 94.6231 17.62 94.2391 17.7C93.8711 17.78 93.5111 17.82 93.1591 17.82H92.8711V8.076ZM96.5911 23.196C96.5911 23.468 96.5431 23.74 96.4471 24.012C96.3511 24.284 96.1991 24.532 95.9911 24.756C95.7991 24.98 95.5511 25.164 95.2471 25.308C94.9591 25.436 94.6231 25.5 94.2391 25.5C93.8071 25.5 93.4471 25.436 93.1591 25.308C92.8871 25.18 92.6631 25.028 92.4871 24.852C92.3111 24.66 92.1831 24.452 92.1031 24.228C92.0391 24.004 92.0071 23.796 92.0071 23.604C92.0071 23.492 92.0071 23.34 92.0071 23.148C92.0231 22.956 92.0551 22.796 92.1031 22.668C92.2151 22.764 92.3191 22.836 92.4151 22.884C92.5111 22.932 92.6311 22.956 92.7751 22.956C93.2391 22.956 93.4711 22.66 93.4711 22.068V20.868C93.5991 20.836 93.7591 20.82 93.9511 20.82C94.1751 20.82 94.4391 20.852 94.7431 20.916C95.0471 20.964 95.3351 21.076 95.6071 21.252C95.8791 21.428 96.1111 21.676 96.3031 21.996C96.4951 22.3 96.5911 22.7 96.5911 23.196ZM91.6231 25.5H91.3351C90.9671 25.5 90.5991 25.46 90.2311 25.38C89.8631 25.3 89.5191 25.156 89.1991 24.948C88.8951 24.74 88.6471 24.452 88.4551 24.084C88.2631 23.7 88.1671 23.22 88.1671 22.644V18.66C88.1671 18.084 88.2631 17.612 88.4551 17.244C88.6471 16.86 88.8951 16.564 89.1991 16.356C89.5191 16.132 89.8631 15.98 90.2311 15.9C90.5991 15.82 90.9671 15.78 91.3351 15.78H91.6231V25.5ZM87.9511 10.38C87.9511 10.108 87.9991 9.836 88.0951 9.564C88.1911 9.292 88.3351 9.044 88.5271 8.82C88.7191 8.596 88.9591 8.42 89.2471 8.292C89.5511 8.148 89.9111 8.076 90.3271 8.076C90.7431 8.076 91.0871 8.14 91.3591 8.268C91.6471 8.396 91.8791 8.556 92.0551 8.748C92.2311 8.924 92.3511 9.124 92.4151 9.348C92.4951 9.572 92.5351 9.78 92.5351 9.972C92.5351 10.084 92.5271 10.236 92.5111 10.428C92.5111 10.62 92.4871 10.78 92.4391 10.908C92.3271 10.812 92.2231 10.74 92.1271 10.692C92.0311 10.644 91.9111 10.62 91.7671 10.62C91.3031 10.62 91.0711 10.916 91.0711 11.508V12.708C90.9431 12.74 90.7831 12.756 90.5911 12.756C90.3671 12.756 90.1031 12.732 89.7991 12.684C89.4951 12.62 89.2071 12.5 88.9351 12.324C88.6631 12.148 88.4311 11.908 88.2391 11.604C88.0471 11.3 87.9511 10.892 87.9511 10.38Z" fill="white"/>
</svg>
